<svg width="96" height="96" xmlns="http://www.w3.org/2000/svg" xmlns:xlink="http://www.w3.org/1999/xlink" xml:space="preserve" overflow="hidden"><g transform="translate(-424 -29)"><path d="M471.979 39C451.004 39 434 56.0038 434 76.979 434 97.9542 451.004 114.958 471.979 114.958 492.954 114.958 509.958 97.9542 509.958 76.979 509.967 56.0132 492.979 39.0094 472.013 39 472.002 39 471.99 39 471.979 39ZM471.979 112.958C452.108 112.958 436 96.8497 436 76.979 436 57.1083 452.108 41 471.979 41 491.85 41 507.958 57.1083 507.958 76.979 507.935 96.8403 491.84 112.935 471.979 112.958Z" fill="#BFBFBF"/><path d="M473.345 56.079C466.741 55.3273 460.779 60.0712 460.027 66.6748 459.976 67.1257 459.95 67.5792 459.95 68.033L461.95 68.033C461.952 62.4936 466.445 58.0048 471.984 58.007 477.523 58.0093 482.012 62.5017 482.01 68.0411 482.009 71.4915 480.234 74.6991 477.311 76.533 473.411 78.9087 471.017 83.131 470.979 87.697L472.979 87.697C473.021 83.819 475.063 80.2376 478.379 78.227 484.007 74.6952 485.707 67.2696 482.175 61.6414 480.231 58.5434 476.983 56.4979 473.349 56.083Z" fill="#BFBFBF"/><path d="M474 96C474 97.1046 473.105 98 472 98 470.895 98 470 97.1046 470 96 470 94.8954 470.895 94 472 94 473.105 94 474 94.8954 474 96Z" fill="#BFBFBF"/></g></svg>